<mxfile host="app.diagrams.net" modified="2022-07-13T02:50:14.624Z" agent="5.0 (Macintosh; Intel Mac OS X 10_15_7) AppleWebKit/605.1.15 (KHTML, like Gecko) Version/15.5 Safari/605.1.15" etag="2eUynMTVDTw3JVt_k_8M" version="20.0.4" type="github">
  <diagram id="A3Ol-_YGaJEBPg2FYjOO" name="Page-1">
    <mxGraphModel dx="1122" dy="717" grid="1" gridSize="10" guides="1" tooltips="1" connect="1" arrows="1" fold="1" page="1" pageScale="1" pageWidth="827" pageHeight="1169" math="0" shadow="0">
      <root>
        <mxCell id="0" />
        <mxCell id="1" parent="0" />
        <mxCell id="zxtSSvJex8UuKVkTdxrf-26" value="Salesforce" style="ellipse;shape=cloud;whiteSpace=wrap;html=1;labelBorderColor=default;align=right;fillColor=#dae8fc;strokeColor=#6c8ebf;" vertex="1" parent="1">
          <mxGeometry x="870" y="65" width="430" height="295" as="geometry" />
        </mxCell>
        <mxCell id="zxtSSvJex8UuKVkTdxrf-1" value="" style="swimlane;startSize=0;align=left;" vertex="1" parent="1">
          <mxGeometry x="80" y="390" width="810" height="510" as="geometry" />
        </mxCell>
        <mxCell id="zxtSSvJex8UuKVkTdxrf-24" value="Common Layer" style="rounded=0;whiteSpace=wrap;html=1;labelBorderColor=default;align=left;" vertex="1" parent="zxtSSvJex8UuKVkTdxrf-1">
          <mxGeometry x="30" y="220" width="740" height="250" as="geometry" />
        </mxCell>
        <mxCell id="zxtSSvJex8UuKVkTdxrf-23" value="API Layer" style="rounded=0;whiteSpace=wrap;html=1;labelBorderColor=default;align=left;" vertex="1" parent="zxtSSvJex8UuKVkTdxrf-1">
          <mxGeometry x="30" y="20" width="740" height="110" as="geometry" />
        </mxCell>
        <mxCell id="zxtSSvJex8UuKVkTdxrf-2" value="Pull Service Backend" style="text;html=1;align=center;verticalAlign=middle;resizable=0;points=[];autosize=1;strokeColor=none;fillColor=none;labelBorderColor=default;" vertex="1" parent="zxtSSvJex8UuKVkTdxrf-1">
          <mxGeometry x="230" y="480" width="140" height="30" as="geometry" />
        </mxCell>
        <mxCell id="zxtSSvJex8UuKVkTdxrf-19" value="" style="edgeStyle=orthogonalEdgeStyle;rounded=0;orthogonalLoop=1;jettySize=auto;html=1;" edge="1" parent="zxtSSvJex8UuKVkTdxrf-1" source="zxtSSvJex8UuKVkTdxrf-16" target="zxtSSvJex8UuKVkTdxrf-18">
          <mxGeometry relative="1" as="geometry" />
        </mxCell>
        <mxCell id="zxtSSvJex8UuKVkTdxrf-16" value="Create API" style="shape=process;whiteSpace=wrap;html=1;backgroundOutline=1;labelBorderColor=default;" vertex="1" parent="zxtSSvJex8UuKVkTdxrf-1">
          <mxGeometry x="330" y="45" width="120" height="60" as="geometry" />
        </mxCell>
        <mxCell id="zxtSSvJex8UuKVkTdxrf-25" value="Integrations" style="rounded=0;whiteSpace=wrap;html=1;labelBorderColor=default;align=left;" vertex="1" parent="zxtSSvJex8UuKVkTdxrf-1">
          <mxGeometry x="159" y="370" width="410" height="80" as="geometry" />
        </mxCell>
        <mxCell id="zxtSSvJex8UuKVkTdxrf-20" value="Copado CI/CD Integration" style="rounded=0;whiteSpace=wrap;html=1;labelBorderColor=default;" vertex="1" parent="zxtSSvJex8UuKVkTdxrf-1">
          <mxGeometry x="285" y="385" width="210" height="50" as="geometry" />
        </mxCell>
        <mxCell id="zxtSSvJex8UuKVkTdxrf-21" style="edgeStyle=orthogonalEdgeStyle;rounded=0;orthogonalLoop=1;jettySize=auto;html=1;entryX=0.533;entryY=-0.033;entryDx=0;entryDy=0;entryPerimeter=0;" edge="1" parent="zxtSSvJex8UuKVkTdxrf-1" source="zxtSSvJex8UuKVkTdxrf-18" target="zxtSSvJex8UuKVkTdxrf-20">
          <mxGeometry relative="1" as="geometry" />
        </mxCell>
        <mxCell id="zxtSSvJex8UuKVkTdxrf-22" value="Start first Pull Service with new access token" style="edgeLabel;html=1;align=center;verticalAlign=middle;resizable=0;points=[];labelBorderColor=default;" vertex="1" connectable="0" parent="zxtSSvJex8UuKVkTdxrf-21">
          <mxGeometry x="-0.1194" y="2" relative="1" as="geometry">
            <mxPoint as="offset" />
          </mxGeometry>
        </mxCell>
        <mxCell id="zxtSSvJex8UuKVkTdxrf-33" style="edgeStyle=orthogonalEdgeStyle;rounded=0;orthogonalLoop=1;jettySize=auto;html=1;" edge="1" parent="zxtSSvJex8UuKVkTdxrf-1" source="zxtSSvJex8UuKVkTdxrf-28" target="zxtSSvJex8UuKVkTdxrf-32">
          <mxGeometry relative="1" as="geometry" />
        </mxCell>
        <mxCell id="zxtSSvJex8UuKVkTdxrf-28" value="Listener endpoint for salesforce" style="shape=process;whiteSpace=wrap;html=1;backgroundOutline=1;labelBorderColor=default;" vertex="1" parent="zxtSSvJex8UuKVkTdxrf-1">
          <mxGeometry x="550" y="45" width="120" height="60" as="geometry" />
        </mxCell>
        <mxCell id="zxtSSvJex8UuKVkTdxrf-31" value="Auth Util" style="rounded=0;whiteSpace=wrap;html=1;labelBorderColor=default;align=left;" vertex="1" parent="zxtSSvJex8UuKVkTdxrf-1">
          <mxGeometry x="150" y="250" width="520" height="80" as="geometry" />
        </mxCell>
        <mxCell id="zxtSSvJex8UuKVkTdxrf-18" value="Get Access token from CODE" style="shape=process;whiteSpace=wrap;html=1;backgroundOutline=1;labelBorderColor=default;" vertex="1" parent="zxtSSvJex8UuKVkTdxrf-1">
          <mxGeometry x="230" y="260" width="120" height="60" as="geometry" />
        </mxCell>
        <mxCell id="zxtSSvJex8UuKVkTdxrf-34" style="edgeStyle=orthogonalEdgeStyle;rounded=0;orthogonalLoop=1;jettySize=auto;html=1;" edge="1" parent="zxtSSvJex8UuKVkTdxrf-1" source="zxtSSvJex8UuKVkTdxrf-32" target="zxtSSvJex8UuKVkTdxrf-20">
          <mxGeometry relative="1" as="geometry">
            <Array as="points">
              <mxPoint x="540" y="353" />
              <mxPoint x="480" y="353" />
            </Array>
          </mxGeometry>
        </mxCell>
        <mxCell id="zxtSSvJex8UuKVkTdxrf-36" value="Subsequent pulls" style="edgeLabel;html=1;align=center;verticalAlign=middle;resizable=0;points=[];labelBorderColor=default;" vertex="1" connectable="0" parent="zxtSSvJex8UuKVkTdxrf-34">
          <mxGeometry x="-0.232" y="1" relative="1" as="geometry">
            <mxPoint as="offset" />
          </mxGeometry>
        </mxCell>
        <mxCell id="zxtSSvJex8UuKVkTdxrf-32" value="Get Access token from JWT" style="shape=process;whiteSpace=wrap;html=1;backgroundOutline=1;labelBorderColor=default;" vertex="1" parent="zxtSSvJex8UuKVkTdxrf-1">
          <mxGeometry x="480" y="260" width="120" height="60" as="geometry" />
        </mxCell>
        <mxCell id="zxtSSvJex8UuKVkTdxrf-3" value="" style="swimlane;startSize=0;labelBorderColor=default;" vertex="1" parent="1">
          <mxGeometry x="120" y="40" width="500" height="270" as="geometry" />
        </mxCell>
        <mxCell id="zxtSSvJex8UuKVkTdxrf-4" value="Pull Service Frontend" style="text;html=1;align=center;verticalAlign=middle;resizable=0;points=[];autosize=1;strokeColor=none;fillColor=none;labelBorderColor=default;" vertex="1" parent="zxtSSvJex8UuKVkTdxrf-3">
          <mxGeometry x="200" y="240" width="140" height="30" as="geometry" />
        </mxCell>
        <mxCell id="zxtSSvJex8UuKVkTdxrf-8" style="edgeStyle=orthogonalEdgeStyle;rounded=0;orthogonalLoop=1;jettySize=auto;html=1;" edge="1" parent="zxtSSvJex8UuKVkTdxrf-3" source="zxtSSvJex8UuKVkTdxrf-6" target="zxtSSvJex8UuKVkTdxrf-7">
          <mxGeometry relative="1" as="geometry" />
        </mxCell>
        <mxCell id="zxtSSvJex8UuKVkTdxrf-6" value="Configure pull service" style="shape=process;whiteSpace=wrap;html=1;backgroundOutline=1;labelBorderColor=default;" vertex="1" parent="zxtSSvJex8UuKVkTdxrf-3">
          <mxGeometry x="60" y="105" width="120" height="60" as="geometry" />
        </mxCell>
        <mxCell id="zxtSSvJex8UuKVkTdxrf-7" value="Send Authorisation Request" style="shape=process;whiteSpace=wrap;html=1;backgroundOutline=1;labelBorderColor=default;" vertex="1" parent="zxtSSvJex8UuKVkTdxrf-3">
          <mxGeometry x="340" y="105" width="120" height="60" as="geometry" />
        </mxCell>
        <mxCell id="zxtSSvJex8UuKVkTdxrf-10" style="edgeStyle=orthogonalEdgeStyle;rounded=0;orthogonalLoop=1;jettySize=auto;html=1;" edge="1" parent="1" source="zxtSSvJex8UuKVkTdxrf-9" target="zxtSSvJex8UuKVkTdxrf-7">
          <mxGeometry relative="1" as="geometry">
            <Array as="points">
              <mxPoint x="740" y="260" />
              <mxPoint x="520" y="260" />
            </Array>
          </mxGeometry>
        </mxCell>
        <mxCell id="zxtSSvJex8UuKVkTdxrf-11" value="Send back &quot;CODE&quot;" style="edgeLabel;html=1;align=center;verticalAlign=middle;resizable=0;points=[];" vertex="1" connectable="0" parent="zxtSSvJex8UuKVkTdxrf-10">
          <mxGeometry x="-0.1569" relative="1" as="geometry">
            <mxPoint as="offset" />
          </mxGeometry>
        </mxCell>
        <mxCell id="zxtSSvJex8UuKVkTdxrf-9" value="Authorise connected APP" style="shape=process;whiteSpace=wrap;html=1;backgroundOutline=1;labelBorderColor=default;" vertex="1" parent="1">
          <mxGeometry x="970" y="170" width="120" height="60" as="geometry" />
        </mxCell>
        <mxCell id="zxtSSvJex8UuKVkTdxrf-14" value="" style="edgeStyle=orthogonalEdgeStyle;rounded=0;orthogonalLoop=1;jettySize=auto;html=1;" edge="1" parent="1" source="zxtSSvJex8UuKVkTdxrf-7" target="zxtSSvJex8UuKVkTdxrf-9">
          <mxGeometry relative="1" as="geometry" />
        </mxCell>
        <mxCell id="zxtSSvJex8UuKVkTdxrf-15" value="POST Request" style="edgeLabel;html=1;align=center;verticalAlign=middle;resizable=0;points=[];" vertex="1" connectable="0" parent="zxtSSvJex8UuKVkTdxrf-14">
          <mxGeometry x="-0.22" y="-3" relative="1" as="geometry">
            <mxPoint as="offset" />
          </mxGeometry>
        </mxCell>
        <mxCell id="zxtSSvJex8UuKVkTdxrf-17" style="edgeStyle=orthogonalEdgeStyle;rounded=0;orthogonalLoop=1;jettySize=auto;html=1;entryX=0.583;entryY=-0.067;entryDx=0;entryDy=0;entryPerimeter=0;" edge="1" parent="1" source="zxtSSvJex8UuKVkTdxrf-7" target="zxtSSvJex8UuKVkTdxrf-16">
          <mxGeometry relative="1" as="geometry" />
        </mxCell>
        <mxCell id="zxtSSvJex8UuKVkTdxrf-29" style="edgeStyle=orthogonalEdgeStyle;rounded=0;orthogonalLoop=1;jettySize=auto;html=1;entryX=1;entryY=0.5;entryDx=0;entryDy=0;" edge="1" parent="1" source="zxtSSvJex8UuKVkTdxrf-27" target="zxtSSvJex8UuKVkTdxrf-28">
          <mxGeometry relative="1" as="geometry" />
        </mxCell>
        <mxCell id="zxtSSvJex8UuKVkTdxrf-30" value="Send JWT" style="edgeLabel;html=1;align=center;verticalAlign=middle;resizable=0;points=[];" vertex="1" connectable="0" parent="zxtSSvJex8UuKVkTdxrf-29">
          <mxGeometry x="-0.1394" y="3" relative="1" as="geometry">
            <mxPoint as="offset" />
          </mxGeometry>
        </mxCell>
        <mxCell id="zxtSSvJex8UuKVkTdxrf-27" value="Trigger pull service at regular interval" style="shape=process;whiteSpace=wrap;html=1;backgroundOutline=1;labelBorderColor=default;" vertex="1" parent="1">
          <mxGeometry x="1060" y="250" width="120" height="60" as="geometry" />
        </mxCell>
      </root>
    </mxGraphModel>
  </diagram>
</mxfile>
